<?xml version="1.0" encoding="UTF-8" standalone="no"?>
<!-- Created with Inkscape (http://www.inkscape.org/) -->

<svg
   width="32.976822mm"
   height="10.924444mm"
   viewBox="0 0 32.976821 10.924444"
   version="1.1"
   id="svg9098"
   xmlns="http://www.w3.org/2000/svg"
   xmlns:svg="http://www.w3.org/2000/svg">
  <defs
     id="defs9095" />
  <g
     id="layer1"
     transform="translate(-93.876157,-136.12274)">
    <g
       id="g7806"
       transform="translate(-35.329403,57.857581)">
      <path
         id="path4389"
         style="font-size:10.5833px;line-height:1.25;fill:#006699;fill-opacity:1;stroke:none;stroke-width:0.1383;stroke-linecap:square;stroke-linejoin:bevel;paint-order:stroke markers fill"
         d="m 150.58567,78.364725 v 4.430737 l 0.28784,-0.52658 h 10e-4 l 1.01544,-1.85829 v -0.79478 h 2.74506 v -1.251087 z m 2.10375,1.824697 c -0.18084,0 -0.32711,0.14677 -0.32711,0.32763 -5e-5,0.0411 0.008,0.0817 0.0222,0.11988 -0.6263,1.14586 -1.17502,2.15256 -1.79834,3.29179 v 1.080557 h 4.11138 v -1.251087 h -2.80759 v -1.43919 c 0,0 0.19526,-0.35694 0.2682,-0.49041 0.14528,0.0794 0.4222,0.23048 0.4222,0.23048 l 0.42478,0.23203 h 0.7059 a 0.39067316,0.39067316 0 0 0 0.34934,0.216 0.39067316,0.39067316 0 0 0 0.39067,-0.39067 0.39067316,0.39067316 0 0 0 -0.39067,-0.39067 0.39067316,0.39067316 0 0 0 -0.33642,0.19275 h -0.62425 c -0.24392,-0.13329 -0.37509,-0.20509 -0.76274,-0.41703 0.1429,-0.26147 0.17394,-0.31859 0.35915,-0.65732 0.17813,-0.004 0.32071,-0.14895 0.32091,-0.32711 0,-0.18086 -0.14626,-0.32763 -0.32711,-0.32763 z" />
      <path
         d="m 133.65435,83.301422 c -0.44796,0.29716 -0.92698,0.54998 -1.50358,0.54998 -0.99352,0 -1.48141,-0.78062 -1.60559,-1.63221 h -0.37701 c 0.14193,1.06005 0.77175,2.004777 1.9826,2.004777 0.52781,0 0.97578,-0.177407 1.35722,-0.394747 l 0.24838,0.474587 c -0.52337,0.28829 -1.05561,0.42579 -1.64108,0.42579 -1.69874,0 -2.53702,-1.428177 -2.53702,-2.984987 v -0.0266 h 0.93142 v -0.0976 c 0,-1.03788 0.55885,-2.10236 1.55237,-2.10236 0.62983,0 0.93587,0.19515 1.39714,0.52337 l 0.62095,-1.11327 c -0.58103,-0.434667 -1.19754,-0.660867 -2.0447,-0.660867 -1.5435,0 -2.4971,1.193107 -2.75878,2.572497 h 0.38143 c 0.24395,-1.18423 1.05118,-2.199927 2.37735,-2.199927 0.60765,0 1.0911,0.12419 1.55238,0.403607 l -0.25726,0.46128 c -0.36369,-0.2262 -0.70965,-0.35926 -1.26851,-0.35926 -1.14876,0 -1.82736,1.08666 -1.91163,2.19994 h -0.93587 c -0.004,0.0887 -0.009,0.18184 -0.009,0.27499 v 0.12419 c 0,1.84954 1.06449,3.357557 2.90959,3.357557 0.87377,0 1.55238,-0.27499 2.13341,-0.66087 z"
         style="font-size:10.5833px;line-height:1.25;font-family:'LIBRARY 3 AM';-inkscape-font-specification:'LIBRARY 3 AM, Normal';fill:#646363;fill-opacity:1;stroke-width:0.0586761"
         id="path4391" />
      <path
         d="m 140.02481,78.364875 -1.8451,3.375297 -1.64996,-3.002727 h 0.62096 l 1.02457,1.876147 0.21289,-0.38587 -1.01569,-1.862847 h -1.47254 l 2.27977,4.151487 2.06688,-3.778917 h 0.62095 l -1.88947,3.455137 v 2.443877 h -0.55885 v -1.614467 h -0.37257 v 1.987037 h 1.30399 v -2.718867 l 2.14671,-3.925287 z"
         style="font-size:10.5833px;line-height:1.25;font-family:'LIBRARY 3 AM';-inkscape-font-specification:'LIBRARY 3 AM, Normal';fill:#646363;fill-opacity:1;stroke-width:0.0586761"
         id="path4393" />
      <path
         id="path4395"
         style="font-size:10.5833px;line-height:1.25;font-family:'LIBRARY 3 AM';-inkscape-font-specification:'LIBRARY 3 AM, Normal';fill:#006699;fill-opacity:1;stroke-width:0.0586761"
         d="m 145.87126,78.267265 c -1.2286,0 -2.30219,0.673997 -2.30219,1.995737 0,0.92586 0.51517,1.63953 1.30638,2.08359 0.20872,0.11604 0.41889,0.23185 0.62271,0.34365 a 0.32745447,0.32745447 0 0 0 0,0.001 0.32745447,0.32745447 0 0 0 0.009,0.0708 0.32745447,0.32745447 0 0 0 0.0248,0.0682 0.32745447,0.32745447 0 0 0 5.2e-4,0.001 0.32745447,0.32745447 0 0 0 0.0372,0.0584 0.32745447,0.32745447 0 0 0 0.001,0.001 0.32745447,0.32745447 0 0 0 0.002,0.003 0.32745447,0.32745447 0 0 0 0.0486,0.0486 0.32745447,0.32745447 0 0 0 0.002,0.001 0.32745447,0.32745447 0 0 0 0.062,0.0382 0.32745447,0.32745447 0 0 0 0.0687,0.0238 0.32745447,0.32745447 0 0 0 0.0718,0.008 0.32745447,0.32745447 0 0 0 5.1e-4,0 0.32745447,0.32745447 0 0 0 0.20361,-0.0713 0.32745447,0.32745447 0 0 0 5.2e-4,0 0.32745447,0.32745447 0 0 0 0.12299,-0.25631 0.32745447,0.32745447 0 0 0 -5.2e-4,-0.0165 0.32745447,0.32745447 0 0 0 -5.2e-4,-0.008 0.32745447,0.32745447 0 0 0 0,-10e-4 0.32745447,0.32745447 0 0 0 -0.002,-0.0207 0.32745447,0.32745447 0 0 0 -0.002,-0.007 0.32745447,0.32745447 0 0 0 -0.004,-0.0196 0.32745447,0.32745447 0 0 0 -5.2e-4,-0.002 0.32745447,0.32745447 0 0 0 -0.006,-0.0217 0.32745447,0.32745447 0 0 0 -10e-4,-0.003 0.32745447,0.32745447 0 0 0 -5.1e-4,-0.002 0.32745447,0.32745447 0 0 0 -0.002,-0.006 0.32745447,0.32745447 0 0 0 -0.006,-0.015 0.32745447,0.32745447 0 0 0 0,-5.2e-4 0.32745447,0.32745447 0 0 0 -0.009,-0.0217 0.32745447,0.32745447 0 0 0 -0.001,-0.001 0.32745447,0.32745447 0 0 0 -0.009,-0.0176 0.32745447,0.32745447 0 0 0 -0.003,-0.005 0.32745447,0.32745447 0 0 0 -0.002,-0.004 0.32745447,0.32745447 0 0 0 -0.002,-0.004 0.32745447,0.32745447 0 0 0 -0.008,-0.0119 0.32745447,0.32745447 0 0 0 -0.002,-0.002 0.32745447,0.32745447 0 0 0 -0.0134,-0.0176 0.32745447,0.32745447 0 0 0 -0.002,-0.003 0.32745447,0.32745447 0 0 0 -0.0284,-0.03 0.32745447,0.32745447 0 0 0 -5.2e-4,-5.2e-4 0.32745447,0.32745447 0 0 0 -0.0222,-0.0186 0.32745447,0.32745447 0 0 0 -0.004,-0.003 0.32745447,0.32745447 0 0 0 -0.0129,-0.009 0.32745447,0.32745447 0 0 0 -10e-4,-5.1e-4 0.32745447,0.32745447 0 0 0 -0.0191,-0.0119 0.32745447,0.32745447 0 0 0 -0.003,-0.002 0.32745447,0.32745447 0 0 0 -0.0202,-0.0109 0.32745447,0.32745447 0 0 0 -0.002,-10e-4 0.32745447,0.32745447 0 0 0 -0.0134,-0.006 0.32745447,0.32745447 0 0 0 -0.002,-0.001 0.32745447,0.32745447 0 0 0 -0.005,-0.002 0.32745447,0.32745447 0 0 0 -0.003,-0.001 0.32745447,0.32745447 0 0 0 -0.0191,-0.006 0.32745447,0.32745447 0 0 0 -0.005,-0.002 0.32745447,0.32745447 0 0 0 -0.008,-0.002 0.32745447,0.32745447 0 0 0 -0.0165,-0.004 0.32745447,0.32745447 0 0 0 -0.008,-0.002 0.32745447,0.32745447 0 0 0 -0.01,-0.002 0.32745447,0.32745447 0 0 0 -0.007,-10e-4 0.32745447,0.32745447 0 0 0 -0.0103,-0.001 0.32745447,0.32745447 0 0 0 -0.015,-0.001 0.32745447,0.32745447 0 0 0 -0.008,-5.2e-4 0.32745447,0.32745447 0 0 0 -0.009,0 0.32745447,0.32745447 0 0 0 -0.0543,0.005 0.32745447,0.32745447 0 0 0 -0.0109,0.002 0.32745447,0.32745447 0 0 0 -0.0522,0.015 l -0.59893,-0.32918 0.24443,-0.447 c 0.15699,0.0838 0.32906,0.18173 0.47439,0.26665 0.47986,0.25813 0.90796,0.53125 0.90796,1.27124 0,0.49676 -0.39924,0.70952 -1.11777,0.70952 -0.79176,-0.0323 -1.18339,-0.21299 -1.86241,-0.56793 l -0.45268,1.201997 c 0.6653,0.35926 1.37924,0.6165 2.31509,0.6165 1.40602,0 2.42156,-0.66497 2.42156,-1.960087 0,-1.15834 -0.56522,-1.90304 -1.60662,-2.37815 l -0.42374,0.77566 -0.59015,-0.32401 c -0.31436,-0.20249 -0.54622,-0.45528 -0.54622,-0.95653 0,-0.47015 0.34165,-0.74052 1.00252,-0.74052 0.19834,0 0.39105,0.0218 0.58343,0.0646 l 0.005,-0.008 0.007,0.0108 c 0.30704,0.0697 0.61403,0.1923 0.94412,0.36277 l 0.44339,-1.206127 c -0.55889,-0.28386 -0.95353,-0.47491 -1.98696,-0.47491 z" />
      <path
         d="m 161.54063,83.301422 c -0.44797,0.29716 -0.92699,0.54998 -1.50359,0.54998 -0.99352,0 -1.4814,-0.78062 -1.6056,-1.63221 -0.0307,-0.23832 -0.029,-0.26867 -0.0354,-0.5012 v -0.0976 c 0,-1.03788 0.55886,-2.10236 1.55238,-2.10236 0.62981,0 0.93585,0.19515 1.39713,0.52337 l 0.62095,-1.11328 c -0.58103,-0.434657 -1.19755,-0.660857 -2.0447,-0.660857 -1.54351,0 -2.4971,1.193107 -2.75879,2.572497 0,0 -0.0461,0.20156 -0.0621,0.50563 -0.004,0.0887 -0.009,0.18185 -0.009,0.275 v 0.12419 c 0,1.84954 1.06449,3.357557 2.9096,3.357557 0.87377,0 1.55237,-0.27499 2.13341,-0.66087 z"
         style="font-size:10.5833px;line-height:1.25;font-family:'LIBRARY 3 AM';-inkscape-font-specification:'LIBRARY 3 AM, Normal';fill:#006699;fill-opacity:1;stroke-width:0.0586761"
         id="path4397" />
      <path
         d="m 130.64281,89.118539 q -0.32425,0.0679 -0.55405,0.0679 -0.2298,0 -0.37146,-0.0484 -0.13851,-0.0517 -0.22665,-0.14215 -0.0881,-0.0905 -0.13852,-0.23582 -0.0944,-0.26489 -0.0944,-0.72039 0,-0.73009 0.22666,-0.96592 0.18573,-0.19705 0.56664,-0.19705 0.26128,0 0.59182,0.0679 l -0.01,0.17445 q -0.32739,-0.0614 -0.52572,-0.0614 -0.19832,0 -0.3085,0.0452 -0.10703,0.042 -0.17629,0.1163 -0.0661,0.071 -0.10073,0.20029 -0.063,0.21967 -0.063,0.54918 0,0.32951 0.022,0.49426 0.022,0.16152 0.085,0.29397 0.063,0.13245 0.18573,0.1906 0.12277,0.0581 0.33998,0.0581 0.21721,0 0.54145,-0.0614 z"
         style="font-weight:300;font-size:3.18896px;line-height:1.25;font-family:'Titillium Web';-inkscape-font-specification:'Titillium Web,  weight=280';letter-spacing:0px;word-spacing:0px;fill:#646363;fill-opacity:1;stroke-width:0.0707048"
         id="path4399" />
      <path
         d="m 131.71312,89.154069 h -0.19518 v -0.94976 l -0.702,-1.29541 h 0.21721 l 0.58238,1.08867 0.57923,-1.08867 h 0.22036 l -0.702,1.29541 z"
         style="font-weight:300;font-size:3.18896px;line-height:1.25;font-family:'Titillium Web';-inkscape-font-specification:'Titillium Web,  weight=280';letter-spacing:0px;word-spacing:0px;fill:#646363;fill-opacity:1;stroke-width:0.0707048"
         id="path4401" />
      <path
         d="m 132.72991,86.908899 h 0.77755 q 0.64534,0 0.64534,0.56532 0,0.39736 -0.28961,0.52335 0.36201,0.11629 0.36201,0.53301 0,0.33921 -0.17314,0.48135 -0.16999,0.14214 -0.49738,0.14214 h -0.82477 z m 0.80274,1.1888 h -0.60756 v 0.87869 h 0.62645 q 0.2298,0 0.35257,-0.10018 0.12277,-0.10009 0.12277,-0.35212 0,-0.42643 -0.49423,-0.42643 z m -0.0315,-1.01113 h -0.57608 v 0.83669 h 0.60441 q 0.22036,0 0.32109,-0.10661 0.10389,-0.10983 0.10389,-0.32304 0,-0.21321 -0.11333,-0.31013 -0.11018,-0.0969 -0.33998,-0.0969 z"
         style="font-weight:300;font-size:3.18896px;line-height:1.25;font-family:'Titillium Web';-inkscape-font-specification:'Titillium Web,  weight=280';letter-spacing:0px;word-spacing:0px;fill:#646363;fill-opacity:1;stroke-width:0.0707048"
         id="path4403" />
      <path
         d="m 134.67221,89.154069 v -2.24517 h 1.31271 v 0.1809 h -1.11753 v 0.83346 h 0.92865 v 0.17767 h -0.92865 v 0.87546 h 1.11753 v 0.17768 z"
         style="font-weight:300;font-size:3.18896px;line-height:1.25;font-family:'Titillium Web';-inkscape-font-specification:'Titillium Web,  weight=280';letter-spacing:0px;word-spacing:0px;fill:#646363;fill-opacity:1;stroke-width:0.0707048"
         id="path4405" />
      <path
         d="m 136.60507,88.268919 v 0.88515 h -0.19518 v -2.24517 h 0.80274 q 0.34313,0 0.50997,0.16151 0.16999,0.1583 0.16999,0.50396 0,0.53949 -0.42183,0.65578 l 0.45017,0.92392 h -0.21721 l -0.43128,-0.88515 z m 1.08605,-0.69132 q 0,-0.25198 -0.11647,-0.37151 -0.11648,-0.11952 -0.36202,-0.11952 h -0.60756 v 1.00468 h 0.60756 q 0.47849,0 0.47849,-0.51365 z"
         style="font-weight:300;font-size:3.18896px;line-height:1.25;font-family:'Titillium Web';-inkscape-font-specification:'Titillium Web,  weight=280';letter-spacing:0px;word-spacing:0px;fill:#646363;fill-opacity:1;stroke-width:0.0707048"
         id="path4407" />
      <path
         d="m 138.95346,87.219019 q -0.39979,0 -0.39979,0.28751 0,0.1486 0.0944,0.21322 0.0944,0.0614 0.41553,0.15506 0.32424,0.0905 0.45646,0.21966 0.13221,0.12599 0.13221,0.40059 0,0.34888 -0.19517,0.52333 -0.19203,0.17121 -0.52571,0.17121 -0.26758,0 -0.59182,-0.0646 l -0.11333,-0.0226 0.0346,-0.28751 q 0.42498,0.0581 0.64848,0.0581 0.39035,0 0.39035,-0.35535 0,-0.13892 -0.0881,-0.20353 -0.0881,-0.0679 -0.39664,-0.14536 -0.3085,-0.0807 -0.45961,-0.21968 -0.1511,-0.1389 -0.1511,-0.43934 0,-0.30043 0.18888,-0.45226 0.19203,-0.15507 0.52886,-0.15507 0.24239,0 0.57293,0.0581 l 0.11018,0.0194 -0.0283,0.29074 q -0.44072,-0.0517 -0.6233,-0.0517 z"
         style="font-weight:600;font-size:3.18896px;line-height:1.25;font-family:'Titillium Web';-inkscape-font-specification:'Titillium Web, Semi-Bold';letter-spacing:0px;word-spacing:0px;fill:#646363;fill-opacity:1;stroke-width:0.0707048"
         id="path4409" />
      <path
         d="m 140.03007,89.154069 v -2.21287 H 141.39 v 0.31336 h -1.0105 v 0.6267 h 0.82162 v 0.31013 h -0.82162 v 0.6461 h 1.0105 v 0.31658 z"
         style="font-weight:600;font-size:3.18896px;line-height:1.25;font-family:'Titillium Web';-inkscape-font-specification:'Titillium Web, Semi-Bold';letter-spacing:0px;word-spacing:0px;fill:#646363;fill-opacity:1;stroke-width:0.0707048"
         id="path4411" />
      <path
         d="m 142.47605,89.189599 q -0.4722,0 -0.64219,-0.26812 -0.16684,-0.26814 -0.16684,-0.88193 0,-0.61378 0.16999,-0.87222 0.16999,-0.26167 0.63904,-0.26167 0.28017,0 0.61701,0.0807 l -0.0126,0.29075 q -0.28332,-0.0517 -0.56664,-0.0517 -0.28332,0 -0.38406,0.17446 -0.10073,0.17121 -0.10073,0.64932 0,0.47488 0.0976,0.64932 0.0976,0.17122 0.3809,0.17122 0.28332,0 0.57294,-0.0484 l 0.01,0.29721 q -0.32424,0.071 -0.61386,0.071 z"
         style="font-weight:600;font-size:3.18896px;line-height:1.25;font-family:'Titillium Web';-inkscape-font-specification:'Titillium Web, Semi-Bold';letter-spacing:0px;word-spacing:0px;fill:#646363;fill-opacity:1;stroke-width:0.0707048"
         id="path4413" />
      <path
         d="m 143.7982,88.446599 q 0,0.42965 0.44072,0.42965 0.44071,0 0.44071,-0.42965 v -1.5054 h 0.35258 v 1.49893 q 0,0.3909 -0.20147,0.5718 -0.19833,0.17767 -0.59497,0.17767 -0.3935,0 -0.59182,-0.17767 -0.19832,-0.1809 -0.19832,-0.5718 v -1.49893 h 0.35257 z"
         style="font-weight:600;font-size:3.18896px;line-height:1.25;font-family:'Titillium Web';-inkscape-font-specification:'Titillium Web, Semi-Bold';letter-spacing:0px;word-spacing:0px;fill:#646363;fill-opacity:1;stroke-width:0.0707048"
         id="path4415" />
      <path
         d="m 145.86013,88.365839 v 0.78823 h -0.34943 v -2.21287 h 0.81848 q 0.73033,0 0.73033,0.70424 0,0.47165 -0.35258,0.63963 l 0.35572,0.869 h -0.38405 l -0.31165,-0.78823 z m 0.84051,-0.71717 q 0,-0.39734 -0.37146,-0.39734 h -0.46905 v 0.80438 h 0.47534 q 0.18888,0 0.27702,-0.10984 0.0881,-0.11306 0.0881,-0.2972 z"
         style="font-weight:600;font-size:3.18896px;line-height:1.25;font-family:'Titillium Web';-inkscape-font-specification:'Titillium Web, Semi-Bold';letter-spacing:0px;word-spacing:0px;fill:#646363;fill-opacity:1;stroke-width:0.0707048"
         id="path4417" />
      <path
         d="m 147.45615,89.154069 v -2.21287 h 0.34943 v 2.21287 z"
         style="font-weight:600;font-size:3.18896px;line-height:1.25;font-family:'Titillium Web';-inkscape-font-specification:'Titillium Web, Semi-Bold';letter-spacing:0px;word-spacing:0px;fill:#646363;fill-opacity:1;stroke-width:0.0707048"
         id="path4419" />
      <path
         d="m 148.09519,87.261009 v -0.31981 h 1.57399 v 0.31981 h -0.60756 v 1.89306 h -0.35258 v -1.89306 z"
         style="font-weight:600;font-size:3.18896px;line-height:1.25;font-family:'Titillium Web';-inkscape-font-specification:'Titillium Web, Semi-Bold';letter-spacing:0px;word-spacing:0px;fill:#646363;fill-opacity:1;stroke-width:0.0707048"
         id="path4421" />
      <path
         d="m 150.75208,89.154069 h -0.35257 v -0.91099 l -0.67682,-1.30188 h 0.3935 l 0.45645,0.94976 0.45961,-0.94976 h 0.39035 l -0.67052,1.30188 z"
         style="font-weight:600;font-size:3.18896px;line-height:1.25;font-family:'Titillium Web';-inkscape-font-specification:'Titillium Web, Semi-Bold';letter-spacing:0px;word-spacing:0px;fill:#646363;fill-opacity:1;stroke-width:0.0707048"
         id="path4423" />
      <path
         d="m 153.01863,89.118539 q -0.32425,0.0679 -0.55405,0.0679 -0.2298,0 -0.37146,-0.0484 -0.13851,-0.0517 -0.22666,-0.14215 -0.0881,-0.0905 -0.13851,-0.23582 -0.0944,-0.26489 -0.0944,-0.72039 0,-0.73009 0.22666,-0.96592 0.18573,-0.19705 0.56663,-0.19705 0.26129,0 0.59183,0.0679 l -0.01,0.17445 q -0.32739,-0.0614 -0.52572,-0.0614 -0.19832,0 -0.3085,0.0452 -0.10703,0.042 -0.17629,0.1163 -0.0661,0.071 -0.10073,0.20029 -0.063,0.21967 -0.063,0.54918 0,0.32951 0.022,0.49426 0.022,0.16152 0.085,0.29397 0.063,0.13245 0.18573,0.1906 0.12277,0.0581 0.33998,0.0581 0.21721,0 0.54146,-0.0614 z"
         style="font-weight:300;font-size:3.18896px;line-height:1.25;font-family:'Titillium Web';-inkscape-font-specification:'Titillium Web,  weight=280';letter-spacing:0px;word-spacing:0px;fill:#646363;fill-opacity:1;stroke-width:0.0707048"
         id="path4425" />
      <path
         d="m 153.42471,89.154069 v -2.24517 h 1.31271 v 0.1809 h -1.11753 v 0.83346 h 0.92865 v 0.17767 h -0.92865 v 0.87546 h 1.11753 v 0.17768 z"
         style="font-weight:300;font-size:3.18896px;line-height:1.25;font-family:'Titillium Web';-inkscape-font-specification:'Titillium Web,  weight=280';letter-spacing:0px;word-spacing:0px;fill:#646363;fill-opacity:1;stroke-width:0.0707048"
         id="path4427" />
      <path
         d="m 155.16239,89.154069 v -2.24517 h 0.38406 l 0.91606,2.06749 h 0.0724 v -2.06749 h 0.19203 v 2.24517 h -0.37776 l -0.92236,-2.06427 h -0.0693 v 2.06427 z"
         style="font-weight:300;font-size:3.18896px;line-height:1.25;font-family:'Titillium Web';-inkscape-font-specification:'Titillium Web,  weight=280';letter-spacing:0px;word-spacing:0px;fill:#646363;fill-opacity:1;stroke-width:0.0707048"
         id="path4429" />
      <path
         d="m 157.04488,87.089799 v -0.1809 h 1.574 v 0.1809 h -0.68627 v 2.06427 h -0.19517 v -2.06427 z"
         style="font-weight:300;font-size:3.18896px;line-height:1.25;font-family:'Titillium Web';-inkscape-font-specification:'Titillium Web,  weight=280';letter-spacing:0px;word-spacing:0px;fill:#646363;fill-opacity:1;stroke-width:0.0707048"
         id="path4431" />
      <path
         d="m 158.93367,89.154069 v -2.24517 h 1.31271 v 0.1809 h -1.11753 v 0.83346 h 0.92865 v 0.17767 h -0.92865 v 0.87546 h 1.11753 v 0.17768 z"
         style="font-weight:300;font-size:3.18896px;line-height:1.25;font-family:'Titillium Web';-inkscape-font-specification:'Titillium Web,  weight=280';letter-spacing:0px;word-spacing:0px;fill:#646363;fill-opacity:1;stroke-width:0.0707048"
         id="path4433" />
      <path
         d="m 160.86653,88.268919 v 0.88515 h -0.19518 v -2.24517 h 0.80274 q 0.34313,0 0.50997,0.16151 0.16999,0.1583 0.16999,0.50396 0,0.53949 -0.42183,0.65578 l 0.45016,0.92392 h -0.21721 l -0.43127,-0.88515 z m 1.08605,-0.69132 q 0,-0.25198 -0.11648,-0.37151 -0.11647,-0.11952 -0.36201,-0.11952 h -0.60756 v 1.00468 h 0.60756 q 0.47849,0 0.47849,-0.51365 z"
         style="font-weight:300;font-size:3.18896px;line-height:1.25;font-family:'Titillium Web';-inkscape-font-specification:'Titillium Web,  weight=280';letter-spacing:0px;word-spacing:0px;fill:#646363;fill-opacity:1;stroke-width:0.0707048"
         id="path4435" />
    </g>
  </g>
</svg>
