<?xml version="1.0" encoding="UTF-8" standalone="no"?>
<svg
   version="1.1"
   id="Ebene_1"
   x="0px"
   y="0px"
   viewBox="0 0 268.6 90.899999"
   xml:space="preserve"
   sodipodi:docname="FWF_Logo_Zusatz_Dunkelblau_RGB_EN.svg"
   width="268.60001"
   height="90.900002"
   inkscape:version="1.3.2 (091e20ef0f, 2023-11-25)"
   xmlns:inkscape="http://www.inkscape.org/namespaces/inkscape"
   xmlns:sodipodi="http://sodipodi.sourceforge.net/DTD/sodipodi-0.dtd"
   xmlns="http://www.w3.org/2000/svg"
   xmlns:svg="http://www.w3.org/2000/svg"><defs
   id="defs21" /><sodipodi:namedview
   id="namedview21"
   pagecolor="#ffffff"
   bordercolor="#000000"
   borderopacity="0.25"
   inkscape:showpageshadow="2"
   inkscape:pageopacity="0.0"
   inkscape:pagecheckerboard="0"
   inkscape:deskcolor="#d1d1d1"
   inkscape:zoom="0.26943714"
   inkscape:cx="363.7212"
   inkscape:cy="44.537289"
   inkscape:window-width="1447"
   inkscape:window-height="1212"
   inkscape:window-x="2476"
   inkscape:window-y="461"
   inkscape:window-maximized="1"
   inkscape:current-layer="Ebene_1" />
<style
   type="text/css"
   id="style1">
	.st0{fill:#232871;}
	.st1{font-family:'AeonikPro-Regular';}
	.st2{font-size:13.1586px;}
</style>
<g
   id="g2"
   transform="translate(-72.4,-73.6)">
	<polygon
   class="st0"
   points="85.4,164.5 85.5,124.6 134.9,124.6 134.9,113.5 85.5,113.5 85.4,84.8 141.4,84.8 141.4,73.6 91.9,73.6 72.4,93.1 72.4,164.5 "
   id="polygon1" />
	<polygon
   class="st0"
   points="272.1,93.1 272.1,164.5 285,164.5 285.1,124.6 334.5,124.6 334.5,113.5 285.1,113.5 285,84.8 341,84.8 341,73.6 291.5,73.6 "
   id="polygon2" />
	<path
   class="st0"
   d="m 232.5,154.7 -18.6,-81 H 199 l -18.6,81 -18.6,-81 H 148 l 23,90.8 c 5.3,0 12.8,0 18.1,0 2.4,-11 14,-56.1 17.4,-74 2,10 17.1,72.9 17.4,74 5.3,0 12.8,0 18.1,0 l 23,-90.8 h -13.8 z"
   id="path2" />
</g>


</svg>
