<?xml version="1.0" encoding="utf-8"?>
<!-- Generator: Adobe Illustrator 27.0.1, SVG Export Plug-In . SVG Version: 6.00 Build 0)  -->
<svg version="1.1" id="Sublogo" xmlns="http://www.w3.org/2000/svg" xmlns:xlink="http://www.w3.org/1999/xlink" x="0px" y="0px"
	 viewBox="0 0 556.39 255.12" style="enable-background:new 0 0 556.39 255.12;" xml:space="preserve">
<style type="text/css">
	.Grün_x0020_bogenförmig{fill:url(#SVGID_1_);stroke:#FFFFFF;stroke-width:0.25;stroke-miterlimit:1;}
	.st0{fill:#BA4682;}
	.st1{fill:#FFFFFF;}
	.st2{fill-rule:evenodd;clip-rule:evenodd;fill:#FFFFFF;}
	.st3{fill-rule:evenodd;clip-rule:evenodd;fill:#006699;}
</style>
<linearGradient id="SVGID_1_" gradientUnits="userSpaceOnUse" x1="0" y1="0" x2="0.7071" y2="-0.7071">
	<stop  offset="0" style="stop-color:#249E2E"/>
	<stop  offset="0.9831" style="stop-color:#1C371D"/>
</linearGradient>
<path id="Subsignet" class="st0" d="M556.4,25.53C556.4,11.43,544.97,0,530.89,0H301.28v255.12h229.62
	c14.08,0,25.5-11.43,25.5-25.52V25.53z"/>
<g>
	<path class="st1" d="M318.04,89.76l15.39-1.82c1.73,12.17,7.4,18.25,17.01,18.25c4.76,0,8.51-1.24,11.24-3.73
		c2.73-2.49,4.09-5.57,4.09-9.25c0-2.16-0.48-4-1.43-5.52c-0.95-1.51-2.4-2.76-4.35-3.73c-1.95-0.97-6.67-2.61-14.16-4.9
		c-6.71-2.03-11.62-4.24-14.74-6.62c-3.12-2.38-5.6-5.5-7.44-9.38c-1.84-3.87-2.76-8.04-2.76-12.49c0-5.19,1.18-9.86,3.54-14.02
		c2.36-4.15,5.62-7.29,9.77-9.41s9.29-3.18,15.39-3.18c9.18,0,16.34,2.49,21.5,7.47c5.15,4.98,7.88,12.1,8.18,21.37l-15.78,0.84
		c-0.69-5.11-2.19-8.68-4.48-10.72c-2.3-2.03-5.56-3.05-9.81-3.05c-4.24,0-7.51,0.88-9.81,2.65s-3.44,3.97-3.44,6.6
		c0,2.59,1.04,4.77,3.12,6.54c2.08,1.77,6.87,3.72,14.36,5.84c7.92,2.3,13.64,4.71,17.17,7.24c3.53,2.53,6.22,5.8,8.08,9.8
		c1.86,4,2.79,8.86,2.79,14.58c0,8.27-2.54,15.21-7.63,20.84c-5.09,5.63-13.04,8.44-23.87,8.44
		C330.86,122.42,320.21,111.53,318.04,89.76z"/>
	<path class="st1" d="M478.26,120.8v-95.2h25.33c9.44,0,15.61,0.45,18.51,1.36c4.63,1.47,8.45,4.61,11.46,9.42
		c3.01,4.81,4.51,11,4.51,18.57c0,6.88-1.3,12.65-3.9,17.31c-2.6,4.65-5.84,7.92-9.74,9.81c-3.9,1.88-10.61,2.83-20.13,2.83h-10.33
		v35.91L478.26,120.8z M493.98,41.7v27.08h8.72c5.86,0,9.84-0.41,11.94-1.24c2.1-0.82,3.83-2.31,5.18-4.46
		c1.34-2.15,2.02-4.78,2.02-7.91c0-3.17-0.7-5.84-2.08-8.01c-1.39-2.17-3.1-3.62-5.14-4.36c-2.04-0.74-6.36-1.11-12.95-1.11H493.98z
		"/>
</g>
<rect x="15.67" y="18.15" class="st2" width="218.9" height="218.9"/>
<path class="st3" d="M182.48,124.44c0.42-0.08,0.72-0.12,1.13-0.22c10.25-2.6,17.9-12.48,17.9-23.47l-0.24-75.12h27.78v75.52
	c0.03,26.24-19.9,48.07-45.44,50.77l-1.12,0.12L182.48,124.44z M174.21,152.03l-1.44-0.12c-25.54-2.67-45.28-24.24-45.28-50.49
	V25.63h27.61l-0.04,75.12c0,10.99,7.64,20.87,17.89,23.47c0.45,0.11,0.8,0.18,1.26,0.26L174.21,152.03z M106.78,184.11h-8.77V229
	h8.77V184.11z M166.37,229v-7.82h-20.81v-10.91h17.72v-7.82h-17.72v-10.53h20.81v-7.82H136.8V229H166.37z M229.17,229v-44.9h-8.77
	v27.49l-17.78-27.49h-7.82V229h8.77v-27.56L221.35,229H229.17z M77.15,184.11h-9.14l-7,28.31l-8.2-28.31h-6.56l-8.2,28.31
	l-6.94-28.31h-9.14L33.96,229h7.31l8.26-27.24L57.79,229h7.32L77.15,184.11z M19.61,25.63h95.28v27.24H19.61V25.63z M54.09,60.79
	h27.24v90.52H54.09V60.79z M229.61,0c14.08,0,25.51,11.43,25.51,25.53l0,204.07c0,14.1-11.43,25.52-25.51,25.52H25.51
	C11.43,255.12,0,243.7,0,229.61L0,25.51C0,11.42,11.43,0,25.51,0H229.61z"/>
<g>
	<path class="st1" d="M357.69,225l-3.8,4.86c-1.87-0.91-3.65-2.16-5.37-3.76c-1.33,1.19-2.74,2.07-4.23,2.64s-3.27,0.85-5.33,0.85
		c-4.09,0-7.16-1.15-9.22-3.45c-1.6-1.78-2.39-3.82-2.39-6.13c0-2.1,0.63-3.99,1.88-5.67c1.25-1.68,3.12-3.14,5.62-4.38
		c-1.12-1.33-1.96-2.59-2.53-3.79c-0.57-1.2-0.85-2.34-0.85-3.41c0-1.98,0.79-3.67,2.38-5.05c1.59-1.38,3.85-2.07,6.79-2.07
		c2.83,0,5.05,0.72,6.65,2.17c1.6,1.45,2.39,3.22,2.39,5.3c0,1.33-0.39,2.59-1.19,3.78s-2.39,2.54-4.79,4.05l4.57,6.02
		c0.54-0.96,1-2.2,1.39-3.74l5.68,1.3c-0.57,2.01-1.06,3.49-1.48,4.42c-0.42,0.93-0.87,1.71-1.34,2.34c0.7,0.66,1.61,1.38,2.72,2.16
		C356.35,224.23,357.17,224.74,357.69,225z M338.11,213.99c-1.45,0.73-2.53,1.61-3.25,2.64s-1.07,2.08-1.07,3.16
		c0,1.36,0.44,2.47,1.33,3.32c0.89,0.86,2.08,1.29,3.57,1.29c0.98,0,1.93-0.19,2.84-0.58c0.91-0.39,1.9-1.03,2.98-1.92
		L338.11,213.99z M340.57,207.16l1.7-1.3c1.25-0.97,1.88-1.93,1.88-2.89c0-0.81-0.3-1.49-0.91-2.06c-0.6-0.57-1.42-0.85-2.45-0.85
		c-1,0-1.78,0.25-2.35,0.75s-0.85,1.08-0.85,1.73c0,0.78,0.48,1.72,1.43,2.82L340.57,207.16z"/>
	<path class="st1" d="M369,229V196.2h10.63c4.03,0,6.65,0.16,7.88,0.49c1.88,0.49,3.45,1.56,4.72,3.21c1.27,1.65,1.9,3.78,1.9,6.39
		c0,2.01-0.37,3.71-1.1,5.08c-0.73,1.37-1.66,2.45-2.79,3.23c-1.13,0.78-2.27,1.3-3.44,1.56c-1.58,0.31-3.87,0.47-6.87,0.47h-4.32
		V229H369z M375.62,201.75v9.31h3.63c2.61,0,4.36-0.17,5.24-0.51c0.88-0.34,1.57-0.88,2.07-1.61c0.5-0.73,0.75-1.58,0.75-2.55
		c0-1.19-0.35-2.18-1.05-2.95c-0.7-0.78-1.59-1.26-2.66-1.45c-0.79-0.15-2.38-0.22-4.77-0.22H375.62z"/>
	<path class="st1" d="M403.48,229h-6.29v-23.77h5.84v3.38c1-1.6,1.9-2.65,2.7-3.16c0.8-0.51,1.7-0.76,2.72-0.76
		c1.43,0,2.81,0.4,4.14,1.19l-1.95,5.48c-1.06-0.69-2.04-1.03-2.95-1.03c-0.88,0-1.63,0.24-2.24,0.73
		c-0.61,0.48-1.09,1.36-1.44,2.63c-0.35,1.27-0.53,3.92-0.53,7.97V229z"/>
	<path class="st1" d="M415.46,202.02v-5.82h6.29v5.82H415.46z M415.46,229v-23.77h6.29V229H415.46z"/>
	<path class="st1" d="M434.51,229l-9.58-23.77h6.6l4.48,12.13l1.3,4.05c0.34-1.03,0.56-1.71,0.65-2.04
		c0.21-0.67,0.43-1.34,0.67-2.01l4.52-12.13h6.47L440.17,229H434.51z"/>
	<path class="st1" d="M457.2,212.49l-5.71-1.03c0.64-2.3,1.75-4,3.31-5.1c1.57-1.1,3.89-1.66,6.98-1.66c2.8,0,4.89,0.33,6.27,1
		s2.34,1.51,2.9,2.53c0.56,1.02,0.84,2.9,0.84,5.63l-0.07,7.34c0,2.09,0.1,3.63,0.3,4.62c0.2,0.99,0.58,2.05,1.13,3.19h-6.22
		c-0.16-0.42-0.37-1.04-0.6-1.86c-0.11-0.37-0.18-0.62-0.22-0.74c-1.07,1.04-2.22,1.83-3.45,2.35c-1.22,0.52-2.53,0.78-3.92,0.78
		c-2.45,0-4.38-0.66-5.79-1.99c-1.41-1.33-2.12-3.01-2.12-5.04c0-1.34,0.32-2.54,0.96-3.59c0.64-1.05,1.54-1.86,2.7-2.42
		c1.16-0.56,2.82-1.05,5-1.47c2.94-0.55,4.98-1.07,6.11-1.54v-0.63c0-1.21-0.3-2.07-0.89-2.58c-0.6-0.51-1.72-0.77-3.38-0.77
		c-1.12,0-1.99,0.22-2.62,0.66C458.09,210.61,457.58,211.38,457.2,212.49z M465.61,217.59c-0.8,0.27-2.08,0.59-3.83,0.96
		c-1.75,0.37-2.89,0.74-3.42,1.1c-0.82,0.58-1.23,1.32-1.23,2.21c0,0.88,0.33,1.64,0.98,2.28c0.66,0.64,1.49,0.96,2.51,0.96
		c1.13,0,2.21-0.37,3.25-1.12c0.76-0.57,1.26-1.26,1.5-2.08c0.16-0.54,0.25-1.56,0.25-3.07V217.59z"/>
	<path class="st1" d="M498.71,212.27l-6.2,1.12c-0.21-1.24-0.68-2.17-1.42-2.8c-0.74-0.63-1.7-0.94-2.88-0.94
		c-1.57,0-2.82,0.54-3.75,1.62c-0.93,1.08-1.4,2.89-1.4,5.43c0,2.82,0.47,4.81,1.42,5.97c0.95,1.16,2.22,1.75,3.82,1.75
		c1.19,0,2.17-0.34,2.93-1.02c0.76-0.68,1.3-1.85,1.61-3.5l6.18,1.05c-0.64,2.83-1.87,4.98-3.69,6.42
		c-1.82,1.45-4.26,2.17-7.32,2.17c-3.48,0-6.25-1.1-8.31-3.29c-2.07-2.19-3.1-5.23-3.1-9.11c0-3.92,1.04-6.98,3.11-9.16
		c2.07-2.18,4.88-3.28,8.41-3.28c2.89,0,5.2,0.62,6.9,1.87C496.74,207.82,497.96,209.71,498.71,212.27z"/>
	<path class="st1" d="M500.32,205.24h6.69l5.68,16.87l5.55-16.87h6.51l-8.39,22.87l-1.5,4.14c-0.55,1.39-1.08,2.45-1.58,3.18
		c-0.5,0.73-1.07,1.32-1.72,1.78c-0.65,0.46-1.45,0.81-2.39,1.06c-0.95,0.25-2.02,0.38-3.21,0.38c-1.21,0-2.39-0.13-3.56-0.38
		l-0.56-4.92c0.99,0.19,1.87,0.29,2.66,0.29c1.46,0,2.54-0.43,3.24-1.29c0.7-0.86,1.24-1.95,1.61-3.28L500.32,205.24z"/>
</g>
<g>
	<path class="st1" d="M337.63,173.43l6.44-0.63c0.39,2.16,1.18,3.75,2.36,4.77c1.19,1.01,2.79,1.52,4.8,1.52
		c2.13,0,3.74-0.45,4.82-1.35c1.08-0.9,1.62-1.96,1.62-3.17c0-0.78-0.23-1.44-0.68-1.98c-0.46-0.54-1.25-1.02-2.38-1.42
		c-0.78-0.27-2.54-0.75-5.3-1.43c-3.55-0.88-6.04-1.96-7.47-3.25c-2.01-1.8-3.02-4.01-3.02-6.6c0-1.67,0.47-3.23,1.42-4.69
		c0.95-1.45,2.31-2.56,4.09-3.32c1.78-0.76,3.94-1.14,6.46-1.14c4.12,0,7.22,0.9,9.3,2.71c2.08,1.81,3.17,4.21,3.28,7.23l-6.62,0.29
		c-0.28-1.69-0.89-2.9-1.82-3.64s-2.33-1.11-4.2-1.11c-1.92,0-3.43,0.4-4.52,1.19c-0.7,0.51-1.05,1.19-1.05,2.04
		c0,0.78,0.33,1.44,0.99,1.99c0.83,0.7,2.86,1.43,6.09,2.19s5.61,1.55,7.15,2.36c1.54,0.81,2.75,1.92,3.63,3.33
		c0.87,1.41,1.31,3.15,1.31,5.22c0,1.88-0.52,3.64-1.57,5.28c-1.04,1.64-2.52,2.86-4.43,3.66c-1.91,0.8-4.29,1.2-7.14,1.2
		c-4.15,0-7.33-0.96-9.56-2.88S338.07,177.1,337.63,173.43z"/>
	<path class="st1" d="M383.78,176.54l6.27,1.05c-0.8,2.3-2.08,4.05-3.81,5.25c-1.74,1.2-3.91,1.8-6.52,1.8
		c-4.13,0-7.19-1.35-9.18-4.05c-1.57-2.16-2.35-4.89-2.35-8.19c0-3.94,1.03-7.02,3.09-9.25c2.06-2.23,4.66-3.35,7.81-3.35
		c3.54,0,6.33,1.17,8.37,3.5s3.02,5.91,2.93,10.73h-15.75c0.04,1.87,0.55,3.32,1.52,4.35c0.97,1.04,2.18,1.56,3.62,1.56
		c0.98,0,1.81-0.27,2.48-0.81S383.44,177.74,383.78,176.54z M384.14,170.19c-0.04-1.82-0.51-3.2-1.41-4.15s-1.98-1.42-3.27-1.42
		c-1.37,0-2.51,0.5-3.4,1.5c-0.89,1-1.33,2.36-1.32,4.07H384.14z"/>
	<path class="st1" d="M416.26,167.37l-6.2,1.12c-0.21-1.24-0.68-2.17-1.42-2.8c-0.74-0.63-1.7-0.94-2.88-0.94
		c-1.57,0-2.82,0.54-3.75,1.62c-0.93,1.08-1.4,2.89-1.4,5.43c0,2.82,0.47,4.81,1.42,5.97c0.95,1.16,2.22,1.75,3.82,1.75
		c1.19,0,2.17-0.34,2.93-1.02c0.76-0.68,1.3-1.85,1.61-3.5l6.18,1.05c-0.64,2.83-1.87,4.98-3.69,6.42
		c-1.82,1.45-4.26,2.17-7.32,2.17c-3.48,0-6.25-1.1-8.31-3.29c-2.07-2.19-3.1-5.23-3.1-9.11c0-3.92,1.04-6.98,3.11-9.16
		c2.07-2.18,4.88-3.28,8.41-3.28c2.89,0,5.2,0.62,6.9,1.87C414.28,162.92,415.51,164.82,416.26,167.37z"/>
	<path class="st1" d="M436.54,184.11v-3.56c-0.87,1.27-2,2.27-3.41,3s-2.9,1.1-4.46,1.1c-1.6,0-3.03-0.35-4.3-1.05
		c-1.27-0.7-2.19-1.69-2.75-2.95c-0.57-1.27-0.85-3.02-0.85-5.26v-15.04h6.29v10.92c0,3.34,0.12,5.39,0.35,6.14
		c0.23,0.75,0.65,1.35,1.26,1.79c0.61,0.44,1.39,0.66,2.33,0.66c1.07,0,2.04-0.29,2.89-0.88c0.85-0.59,1.43-1.32,1.75-2.19
		c0.31-0.87,0.47-3.01,0.47-6.41v-10.03h6.29v23.77H436.54z"/>
	<path class="st1" d="M454.85,184.11h-6.29v-23.77h5.84v3.38c1-1.6,1.9-2.65,2.7-3.16c0.8-0.51,1.71-0.76,2.72-0.76
		c1.43,0,2.81,0.4,4.14,1.19l-1.95,5.48c-1.06-0.69-2.04-1.03-2.95-1.03c-0.88,0-1.63,0.24-2.24,0.73
		c-0.61,0.48-1.09,1.36-1.44,2.63c-0.35,1.27-0.53,3.92-0.53,7.97V184.11z"/>
	<path class="st1" d="M467.05,157.12v-5.82h6.29v5.82H467.05z M467.05,184.11v-23.77h6.29v23.77H467.05z"/>
	<path class="st1" d="M491.6,160.34v5.01h-4.3v9.58c0,1.94,0.04,3.07,0.12,3.39c0.08,0.32,0.27,0.59,0.56,0.79s0.65,0.31,1.06,0.31
		c0.58,0,1.42-0.2,2.53-0.6l0.54,4.88c-1.46,0.63-3.12,0.94-4.97,0.94c-1.13,0-2.16-0.19-3.07-0.57c-0.91-0.38-1.58-0.87-2-1.48
		c-0.42-0.6-0.72-1.42-0.88-2.45c-0.13-0.73-0.2-2.21-0.2-4.43v-10.36h-2.89v-5.01H481v-4.72l6.31-3.67v8.39H491.6z"/>
	<path class="st1" d="M494.37,160.34h6.69l5.68,16.87l5.55-16.87h6.51l-8.39,22.87l-1.5,4.14c-0.55,1.39-1.08,2.45-1.58,3.18
		c-0.5,0.73-1.07,1.32-1.72,1.78c-0.65,0.46-1.45,0.81-2.39,1.06c-0.95,0.25-2.02,0.38-3.21,0.38c-1.21,0-2.39-0.13-3.56-0.38
		l-0.56-4.92c0.98,0.19,1.87,0.29,2.66,0.29c1.46,0,2.54-0.43,3.25-1.29c0.7-0.86,1.24-1.95,1.61-3.28L494.37,160.34z"/>
</g>
<g>
	<g>
		<path class="st1" d="M471.42,111.66l-3.24-3.41l1.98-8.77l-2.23-2.1l-7.21,3.02l-2.38-2.5l5.5-10.92l-3.93-4.05l-11.49,4.54
			l-3.39-3.56l3.16-6.62l-5.44-5.8c6.17-4.88,10.14-12.42,10.14-20.89c0-14.7-11.92-26.62-26.62-26.62
			c-14.7,0-26.62,11.92-26.62,26.62c0,6.95,2.67,13.28,7.04,18.03l-0.01,0l52.29,52.18h12.5v-9.14H471.42z M426,38.93
			c5.47,0,9.9,4.43,9.9,9.9c0,5.46-4.43,9.9-9.9,9.9c-5.46,0-9.89-4.43-9.89-9.9C416.11,43.36,420.54,38.93,426,38.93z"/>
	</g>
	<path class="st1" d="M428.25,101.57c-16.08,15.99-32.29-4.24-19.42-19.42l-10.25-10.25c-28.58,29.07,10.97,70.74,40.52,40.52
		L428.25,101.57z"/>
</g>
</svg>
