<?xml version="1.0" encoding="UTF-8" standalone="no"?>
<svg
   xmlns:dc="http://purl.org/dc/elements/1.1/"
   xmlns:cc="http://creativecommons.org/ns#"
   xmlns:rdf="http://www.w3.org/1999/02/22-rdf-syntax-ns#"
   xmlns:svg="http://www.w3.org/2000/svg"
   xmlns="http://www.w3.org/2000/svg"
   xmlns:sodipodi="http://sodipodi.sourceforge.net/DTD/sodipodi-0.dtd"
   xmlns:inkscape="http://www.inkscape.org/namespaces/inkscape"
   version="1.1"
   id="svg2"
   width="1532.121"
   height="333.70001"
   viewBox="0 0 1532.121 333.70001"
   sodipodi:docname="spycode-logo.svg"
   inkscape:version="1.0.2 (e86c870879, 2021-01-15)">
  <metadata
     id="metadata8">
    <rdf:RDF>
      <cc:Work
         rdf:about="">
        <dc:format>image/svg+xml</dc:format>
        <dc:type
           rdf:resource="http://purl.org/dc/dcmitype/StillImage" />
        <dc:title></dc:title>
      </cc:Work>
    </rdf:RDF>
  </metadata>
  <defs
     id="defs6" />
  <sodipodi:namedview
     pagecolor="#ffffff"
     bordercolor="#ffffff"
     borderopacity="1"
     objecttolerance="10"
     gridtolerance="10"
     guidetolerance="10"
     inkscape:pageopacity="0"
     inkscape:pageshadow="2"
     inkscape:window-width="2483"
     inkscape:window-height="1112"
     id="namedview4"
     showgrid="false"
     inkscape:zoom="0.771"
     inkscape:cx="983.78729"
     inkscape:cy="387"
     inkscape:window-x="1995"
     inkscape:window-y="240"
     inkscape:window-maximized="0"
     inkscape:current-layer="g10" />
  <g
     inkscape:groupmode="layer"
     inkscape:label="Image"
     id="g10">
    <path
       style="fill:#002f80"
       d="m 438.16667,332.84499 c 0.18333,-0.45515 12.8645,-24.31293 28.18037,-53.01729 l 27.84703,-52.18974 -39.59703,-70.82953 C 432.81867,117.85218 415,85.453985 415,84.812415 c 0,-0.87076 8.54203,-1.09972 33.69548,-0.90317 l 33.69548,0.2633 22.0157,42.238815 c 12.10864,23.23135 22.31303,41.90635 22.67643,41.5 0.36341,-0.40635 10.20165,-19.52632 21.86277,-42.48882 l 21.20203,-41.749995 h 33.42606 c 18.38433,0 33.42605,0.23512 33.42605,0.52249 0,0.28737 -29.97461,56.537365 -66.61024,124.999995 l -66.61023,124.47751 h -32.9731 c -18.1352,0 -32.8231,-0.3724 -32.63976,-0.82755 z M 69,256.04508 C 53.40969,254.07895 34.61146,248.49134 21.55271,241.94177 12.19188,237.24689 0,229.89061 0,228.93741 0,228.30798 20.9629,188.47929 24.78011,181.85617 l 2.48772,-4.31637 3.11609,2.89196 c 17.68811,16.4159 43.48677,25.90644 60.69811,22.32898 17.61099,-3.66053 27.05478,-17.38541 21.05299,-30.59678 -4.05486,-8.9257 -12.999977,-13.94673 -39.20356,-22.00553 C 47.79075,142.42651 40.41147,139.4435 32.25461,133.71516 16.88156,122.91909 9.8957703,106.98164 9.8813503,82.672545 9.8705503,64.518955 13.06286,51.543665 20.81503,38.231695 25.09482,30.882475 36.49916,18.814245 44.01105,13.685345 67.33748,-2.2412648 103.54766,-4.3868248 142,7.8792252 c 8.81949,2.8133598 28,11.0989198 28,12.0953898 0,0.81418 -22.89152,45.18055 -24.30692,47.10958 -1.36644,1.8623 -1.49031,1.84716 -4.79787,-0.58633 -11.34015,-8.34336 -24.62463,-13.03695 -37.09174,-13.10503 -7.82773,-0.0428 -9.35073,0.27457 -15.24504,3.17633 -7.82309,3.85129 -11.60321,8.32104 -12.30533,14.55025 -0.69416,6.1586 0.22294,8.9674 4.45882,13.65602 5.02335,5.56024 9.55912,7.63206 33.63583,15.363905 31.81871,10.21807 45.43217,18.18921 54.9793,32.19224 8.32008,12.20329 11.32395,25.07969 10.34408,44.34096 -1.32849,26.11387 -11.13821,46.86272 -28.30496,59.86872 -10.89879,8.25721 -24.4608,14.15413 -40.86617,17.76907 -6.83984,1.50717 -34.22688,2.65198 -41.5,1.73475 z m 698.99991,-0.12254 c -10e-5,-0.4125 6.3452,-14.52603 14.1006,-31.36339 l 14.1008,-30.61339 5.4746,-1.22517 c 9.7906,-2.19104 22.3546,-9.29449 30.2284,-17.09051 l 7.0957,-7.02571 v 37.96224 37.96223 l -5.4872,2.05302 c -8.4891,3.17619 -22.1009,6.79929 -32.0128,8.52099 -9.1559,1.59038 -33.4999,2.18603 -33.5001,0.81969 z m 179.5001,-0.70738 c -24.5636,-3.3983 -42.9086,-12.50961 -58.0953,-28.85388 -10.2279,-11.00744 -15.8869,-21.35439 -20.1322,-36.80974 -2.5103,-9.13923 -2.5047,-36.70805 0.01,-45.879 6.1284,-22.35538 23.605,-43.23098 45.2181,-54.012735 28.0662,-14.00088 69.7713,-15.28029 98.57319,-3.02398 20.5406,8.7408 39.1441,27.460655 47.3436,47.639595 7.1413,17.57491 7.6816,44.8753 1.2461,62.96837 -7.7709,21.84775 -25.6956,40.66686 -48.3034,50.71379 -16.93479,7.52581 -43.08839,10.40789 -65.85949,7.25758 z m 35.5,-53.12947 c 7.8374,-3.72127 14.634,-10.36267 18.58529,-18.16089 2.6693,-5.26796 2.9147,-6.63628 2.9147,-16.25226 0,-9.25516 -0.3124,-11.16629 -2.6352,-16.12001 -8.92579,-19.03608 -30.27219,-27.44048 -50.35739,-19.82646 -7.6167,2.8874 -16.4415,11.43347 -20.2919,19.65096 -2.3866,5.09357 -2.7155,7.00669 -2.7155,15.79551 0,8.75678 0.3332,10.71088 2.6801,15.71807 3.2026,6.83311 10.7483,15.19459 16.2406,17.99656 8.0011,4.08183 10.9348,4.74093 20.0793,4.51104 7.7091,-0.1938 9.9323,-0.66891 15.5,-3.31252 z m 441.58349,53.54036 c -8.8054,-1.37395 -16.8593,-3.59673 -25.3477,-6.99563 -22.211,-8.89374 -40.3732,-29.23564 -47.2832,-52.95788 -3.0975,-10.63377 -3.8568,-34.84559 -1.4896,-47.5 3.0849,-16.49199 10.0821,-30.66454 20.7918,-42.1132 16.1561,-17.270905 35.2766,-25.037225 64.271,-26.105345 42.1755,-1.5537 70.0527,13.06556 86.2265,45.218545 5.7626,11.45603 8.5498,23.67241 9.7533,42.75 l 0.6151,9.75 h -62.205 -62.2049 l 0.5898,6.316 c 1.2235,13.10179 7.6788,23.57562 17.0986,27.74242 5.6299,2.49038 17.7445,4.28704 23.4705,3.48081 7.0125,-0.98737 14.5214,-5.0681 19.4857,-10.58959 l 4.4501,-4.94964 h 28.0973 c 15.4534,0 28.0972,0.15455 28.0972,0.34345 0,0.1889 -0.8797,2.90028 -1.9548,6.0253 -6.409,18.62804 -18.6219,32.38189 -36.5452,41.15645 -13.679,6.69668 -22.7624,8.5996 -43,9.00824 -9.35,0.18879 -19.6624,-0.0722 -22.9165,-0.57993 z M 1476,142.75545 c 0,-2.7398 -3.5284,-10.59802 -6.5192,-14.51914 -11.0613,-14.50211 -38.0007,-15.33463 -51.3427,-1.58666 -3.6896,3.80186 -8.1381,12.85428 -8.1381,16.5604 0,1.25377 4.7095,1.46249 33,1.46249 31.8576,0 33,-0.0664 33,-1.91709 z M 220,128.10225 V 5.5319652 l 59.25,0.42586 c 64.00279,0.46002 64.07169,0.4654 79.27773,6.1889398 33.35468,12.55466 51.10474,45.9376 46.49295,87.440355 -2.3395,21.05376 -9.02326,36.18744 -21.4738,48.62194 -16.89793,16.87618 -34.04377,21.42874 -80.79688,21.45316 l -19.75,0.0103 v 40.5 40.5 H 251.5 220 Z M 323.5,114.8443 c 9.28967,-4.23421 13.56132,-10.11763 15.52247,-21.379385 2.54095,-14.59123 -2.96483,-26.78413 -14.76552,-32.69913 -4.9726,-2.49248 -20.56689,-4.34486 -32.75695,-3.89106 l -8,0.29782 -0.26481,30.3474 -0.26481,30.347385 17.76481,-0.37202 c 15.89355,-0.33283 18.29149,-0.61208 22.76481,-2.65101 z m 408,132.43828 c -9.37266,-3.86402 -22.97727,-11.7579 -30.46625,-17.6776 -7.71848,-6.1011 -20.04133,-18.00659 -19.98649,-19.30957 0.0407,-0.9673 48.51591,-36.52817 51.0699,-37.46432 0.51235,-0.1878 2.83308,1.51937 5.15719,3.79369 7.46947,7.30949 22.82796,16.04776 28.20576,16.04776 0.836,0 1.5199,0.24621 1.5199,0.54714 0,1.32962 -25.99035,56.94484 -26.7036,57.14147 C 739.85838,250.4819 735.9,249.09654 731.5,247.28258 Z M 1106,128.10462 V 5.5367052 l 55.25,0.38665 55.25,0.38666 10.1317,2.63718 c 46.7301,12.1634798 80.8705,48.2002698 91.1039,96.1645848 2.1713,10.17699 2.3761,34.9857 0.3719,45.06076 -4.8611,24.43726 -16.5084,45.90682 -35.067,64.6392 -12.0496,12.16241 -22.8658,19.66285 -37.0405,25.68557 -21.274,9.03915 -31.7242,10.17327 -93.75,10.17439 l -46.25,8.4e-4 z m 84.6978,68.55955 c 27.0736,-2.39665 44.6887,-13.63716 55.619,-35.49163 4.677,-9.35123 6.6054,-16.98178 7.329,-29 1.3228,-21.96811 -5.8813,-41.275515 -20.7436,-55.594255 -11.9268,-11.49058 -26.2601,-16.56931 -49.6522,-17.59329 L 1169,58.361195 V 127.3502 c 0,37.94395 0.3,69.28901 0.6667,69.65567 0.9316,0.93167 7.9313,0.81794 21.0311,-0.3417 z M 663.02183,182.9956 c -7.89368,-16.79308 -11.52272,-36.83657 -10.74095,-59.32306 0.56376,-16.2158 2.04583,-25.162725 6.23592,-37.644785 2.07115,-6.16986 6.75849,-16.77972 8.04768,-18.21606 0.17814,-0.19847 11.85796,10.46868 25.95515,23.70478 l 25.63127,24.065625 0.31473,14.29522 c 0.1731,7.86237 0.62555,15.24621 1.00543,16.40852 0.608,1.86025 -2.46223,4.3845 -25.64018,21.08053 -14.48198,10.43197 -26.84531,19.26532 -27.47405,19.62968 -0.69998,0.40564 -1.9929,-1.14526 -3.335,-4.00045 z m 42.36087,-115.806985 -23.59204,-22.01607 8.35467,-7.82357 c 9.08851,-8.51076 22.44884,-17.93866 32.7938,-23.1414 9.16338,-4.60849 21.97981,-9.0249398 23.02175,-7.9331298 0.82174,0.86107 17.07413,56.3536098 17.00613,58.0662298 -0.018,0.45753 -4.0797,2.75893 -9.0256,5.11422 -7.07166,3.36759 -10.69869,5.93435 -16.97962,12.01607 l -7.98706,7.73372 z m 125.52611,14.08663 c -9.0578,-8.75383 -18.2499,-13.66483 -31.4992,-16.82879 l -9.0904,-2.17081 -8.6625,-30.05155 c -4.7644,-16.52835 -8.6612,-30.3890498 -8.6596,-30.8015498 0,-1.08209988 13.1438,-0.92174989 23.0291,0.28104 9.8495,1.19843 20.7052,3.8021 33.7238,8.0883798 l 9.25,3.04551 v 37.91753 c 0,20.85465 -0.1125,37.90387 -0.25,37.88715 -0.1375,-0.0167 -3.6661,-3.33182 -7.8412,-7.36691 z"
       id="path837" />
  </g>
</svg>
